<svg width="14" height="14" viewBox="0 0 14 14" fill="none" xmlns="http://www.w3.org/2000/svg">
<path d="M12.5381 2.73052C12.8692 3.15811 13.1451 3.6271 13.3795 4.12365L7.00693 8.82716L4.33114 7.14437V5.13055L6.99331 6.79955L12.5381 2.73052Z" fill="white"/>
<path d="M1.61384 7.00493C1.61384 6.90837 1.61384 6.82561 1.62764 6.72905L0.01382 6.64632C0.01382 6.75667 2.39384e-05 6.88081 2.39384e-05 6.99114C2.39384e-05 8.92222 0.786243 10.6739 2.05522 11.943L3.20005 10.7982C2.22072 9.83264 1.61384 8.49461 1.61384 7.00493Z" fill="white"/>
<path d="M6.99316 1.62607C7.08971 1.62607 7.17248 1.62607 7.26904 1.63986L7.3518 0.0260337C7.24145 0.0260337 7.11731 0.0122401 7.00696 0.0122401C5.0759 0.0122401 3.32424 0.798462 2.05508 2.06744L3.19991 3.21228C4.16545 2.23294 5.51728 1.62607 6.99316 1.62607Z" fill="white"/>
<path d="M6.99316 12.3862C6.89661 12.3862 6.81385 12.3862 6.71729 12.3724L6.63452 13.9862C6.74487 13.9862 6.86901 14 6.97937 14C8.91042 14 10.6621 13.2138 11.9312 11.9448L10.7864 10.7999C9.82088 11.7931 8.48284 12.3862 6.99316 12.3862Z" fill="white"/>
<path d="M10.0278 2.56557L11.3933 1.55865C10.1933 0.593133 8.6623 0 6.99319 0V1.61383C8.12422 1.62762 9.1725 1.97246 10.0278 2.56557Z" fill="white"/>
<path d="M14 7.00493C14 6.57734 13.9586 6.16353 13.8897 5.74974L12.3862 6.86701V7.00494C12.3862 8.59118 11.6965 10.0118 10.6068 10.9913L11.6965 12.1913C13.1034 10.9223 14 9.06037 14 7.00493Z" fill="white"/>
<path d="M6.99316 12.3862C5.40693 12.3862 3.98627 11.6965 3.00684 10.6068L1.80684 11.6965C3.08961 13.1172 4.9378 14 6.99323 14L6.99316 12.3862Z" fill="white"/>
<path d="M3.39316 3.01979L2.30348 1.81975C0.882775 3.10253 0 4.95073 0 7.00593H1.61382C1.61382 5.43349 2.30348 3.99922 3.39316 3.01979Z" fill="white"/>
</svg>
