<svg width="13" height="16" viewBox="0 0 13 16" fill="none" xmlns="http://www.w3.org/2000/svg">
<path d="M0 3.48267L1.94194 6.946V9.05853L0.00227175 12.5151L0 3.48267Z" fill="#5B57A2"/>
<path d="M7.45627 5.68573L9.27594 4.57293L13 4.56947L7.45627 7.958V5.68573Z" fill="#D90751"/>
<path d="M7.44598 3.46227L7.45627 8.0476L5.50979 6.85427V0L7.44598 3.46227Z" fill="#FAB718"/>
<path d="M13 4.56947L9.27594 4.57293L7.44598 3.46227L5.50979 0L13 4.56947Z" fill="#ED6F26"/>
<path d="M7.45627 12.5343V10.3096L5.50979 9.13893L5.51085 16L7.45627 12.5343Z" fill="#63B22F"/>
<path d="M9.2714 11.4316L1.94194 6.946L0 3.48267L12.9921 11.4271L9.2714 11.4316Z" fill="#1487C9"/>
<path d="M5.51099 16L7.45627 12.5343L9.2714 11.4316L12.9921 11.4271L5.51099 16Z" fill="#017F36"/>
<path d="M0.00227175 12.5151L5.52569 9.13907L3.66874 8.00227L1.94194 9.05853L0.00227175 12.5151Z" fill="#984995"/>
</svg>
