<svg width="322" height="228" viewBox="0 0 322 228" fill="none" xmlns="http://www.w3.org/2000/svg">
    <ellipse cx="162" cy="218" rx="74" ry="10" fill="black" fill-opacity="0.11"/>
    <g opacity="0.48">
        <path d="M299.793 135.923C301.232 132.598 300.113 129.063 298.816 126.13C297.389 122.9 294.608 119.77 291.162 118.214C291.24 121.604 292.653 124.765 294.024 127.745C295.386 130.705 297.219 133.783 299.793 135.923Z" fill="#282F42"/>
        <path d="M301.136 143.025C300.975 140.162 301.52 137.156 302.589 134.686C303.529 132.516 304.88 129.452 307.659 128.827C309.008 132.176 309.039 136.419 307.4 139.304C306.215 141.391 304.27 144.085 301.233 144.019C298.41 144.166 295.922 142.235 293.966 140.658C291.791 138.905 289.804 136.376 288.814 133.611C291.678 132.747 294.483 134.352 296.554 135.782C298.787 137.323 300.597 140.105 301.136 143.025Z" fill="#282F42"/>
        <path d="M308.183 151.914C306.49 153.714 303.976 155.9 300.978 155.296C298.217 154.951 296.182 152.666 294.594 150.778C292.885 148.745 291.507 145.97 291.211 143.181C294.154 142.86 296.569 144.842 298.317 146.617C300.142 148.472 301.267 151.475 301.12 154.329C301.639 151.535 302.906 148.779 304.538 146.666C306.029 144.734 308.092 142.131 310.969 142.045C311.479 145.55 310.415 149.541 308.183 151.914Z" fill="#282F42"/>
        <path d="M298.156 166.102C300.867 167.063 303.894 165.831 306.018 164.13C308.754 161.94 310.723 158.701 311.06 155.171C308.177 154.738 305.566 156.836 303.629 158.429C301.543 160.144 299.656 162.552 298.493 165.174C299.274 162.494 298.876 159.382 297.495 157.258C296.161 155.208 294.197 152.884 291.277 152.686C290.85 155.468 291.774 158.353 292.858 160.583C293.868 162.661 295.523 165.303 298.156 166.102Z" fill="#282F42"/>
        <path d="M301.692 176.22C298.823 177.441 295.41 178.549 292.352 176.716C289.83 175.289 288.597 172.28 287.983 169.608C287.333 166.778 287.124 163.61 288.147 160.818C291.058 161.602 293.136 164.149 293.983 166.961C294.868 169.9 294.563 173.159 293.018 175.805C295.077 173.166 297.751 171.209 300.529 169.454C303.053 167.859 306.555 166.327 309.642 167.276C308.354 171.072 305.258 174.701 301.692 176.22Z" fill="#282F42"/>
        <path d="M283.865 186.097C281.6 184.137 281.142 180.773 281.207 177.97C281.277 174.948 281.869 171.705 283.583 169.129C286.376 170.467 287.926 173.466 288.082 176.48C288.245 179.663 287.077 182.819 284.907 185.122C287.641 182.914 291.046 181.293 294.21 180.293C297.267 179.327 301.012 178.173 304.187 179.829C301.868 183.499 297.75 186.572 293.638 187.418C290.453 188.073 286.626 188.601 283.865 186.097Z" fill="#282F42"/>
        <path d="M271.681 185.005C270.809 187.781 270.184 191.386 272.004 193.961C274.263 197.269 278.624 197.476 282.024 197.436C286.588 197.381 292.091 195.245 295.463 191.704C292.524 189.338 288.342 189.782 284.956 190.142L284.763 190.162C280.984 190.563 276.857 191.554 273.25 193.266C276.216 191.405 278.678 188.341 279.372 184.938C279.993 181.894 279.243 178.388 276.643 176.426C274.187 178.692 272.661 181.888 271.681 185.005Z" fill="#282F42"/>
        <path d="M255.94 199.422C254.861 196.044 257.111 192.699 258.866 190.243C260.941 187.339 263.582 184.473 266.956 182.675C269.37 185.63 268.481 189.093 267.096 191.994C265.45 195.444 261.416 197.921 257.493 199.046C261.952 198.224 266.687 198.093 271.083 198.583L271.529 198.632C275.061 199.021 279.661 199.526 281.993 202.573C277.154 205.408 270.813 206.419 265.564 205.382C262.046 204.688 257.276 203.416 255.94 199.422Z" fill="#282F42"/>
    </g>
    <g opacity="0.48">
        <path d="M23.6827 135.923C22.2438 132.598 23.3623 129.063 24.6593 126.13C26.0869 122.9 28.8671 119.77 32.314 118.214C32.2357 121.604 30.8227 124.765 29.4515 127.745C28.0896 130.705 26.2564 133.783 23.6827 135.923Z" fill="#282F42"/>
        <path d="M22.3393 143.025C22.5001 140.162 21.9552 137.156 20.8861 134.686C19.9463 132.516 18.5953 129.452 15.8168 128.827C14.4678 132.176 14.4361 136.419 16.0753 139.304C17.2607 141.391 19.2055 144.085 22.2423 144.019C25.0654 144.166 27.5535 142.235 29.5094 140.658C31.6842 138.905 33.6713 136.376 34.6619 133.611C31.7979 132.747 28.9927 134.352 26.9214 135.782C24.6888 137.323 22.8785 140.105 22.3393 143.025Z" fill="#282F42"/>
        <path d="M15.2929 151.914C16.9859 153.714 19.4999 155.9 22.4972 155.296C25.2585 154.951 27.294 152.666 28.8813 150.778C30.5909 148.745 31.9683 145.97 32.2645 143.181C29.3212 142.86 26.9069 144.842 25.159 146.617C23.3338 148.472 22.2082 151.475 22.3559 154.329C21.8366 151.535 20.5696 148.779 18.9379 146.666C17.4462 144.734 15.3832 142.131 12.5063 142.045C11.9968 145.55 13.0602 149.541 15.2929 151.914Z" fill="#282F42"/>
        <path d="M25.32 166.102C22.6089 167.063 19.582 165.831 17.4572 164.13C14.7217 161.94 12.7528 158.701 12.4155 155.171C15.2982 154.738 17.9093 156.836 19.8466 158.429C21.9331 160.144 23.8194 162.552 24.9831 165.174C24.2021 162.494 24.5992 159.382 25.9808 157.258C27.3144 155.208 29.279 152.884 32.1985 152.686C32.6254 155.468 31.7018 158.353 30.6179 160.583C29.6074 162.661 27.9521 165.303 25.32 166.102Z" fill="#282F42"/>
        <path d="M21.7839 176.22C24.6522 177.441 28.0651 178.549 31.1234 176.716C33.646 175.289 34.879 172.28 35.4928 169.608C36.1429 166.778 36.3518 163.61 35.3281 160.818C32.4179 161.602 30.3393 164.149 29.4925 166.961C28.6073 169.9 28.9127 173.159 30.4574 175.805C28.399 173.166 25.7241 171.209 22.9469 169.454C20.4222 167.859 16.9206 166.327 13.8331 167.276C15.1219 171.072 18.2172 174.701 21.7839 176.22Z" fill="#282F42"/>
        <path d="M39.6109 186.097C41.8759 184.137 42.3333 180.773 42.2685 177.97C42.1984 174.948 41.6068 171.705 39.8921 169.129C37.0994 170.467 35.5492 173.466 35.394 176.48C35.2301 179.663 36.3986 182.819 38.569 185.122C35.8344 182.914 32.4301 181.293 29.2653 180.293C26.2084 179.327 22.4634 178.173 19.2886 179.829C21.6076 183.499 25.7253 186.572 29.8379 187.418C33.0226 188.073 36.8498 188.601 39.6109 186.097Z" fill="#282F42"/>
        <path d="M51.7945 185.005C52.6669 187.781 53.2918 191.386 51.4717 193.961C49.2129 197.269 44.8514 197.476 41.4519 197.436C36.888 197.381 31.3849 195.245 28.0128 191.704C30.9514 189.338 35.1338 189.782 38.5195 190.142L38.7128 190.162C42.4918 190.563 46.6184 191.554 50.2253 193.266C47.2598 191.405 44.7978 188.341 44.1036 184.938C43.4823 181.894 44.2328 178.388 46.8324 176.426C49.2883 178.692 50.8148 181.888 51.7945 185.005Z" fill="#282F42"/>
        <path d="M67.5351 199.422C68.6142 196.044 66.365 192.699 64.6097 190.243C62.5344 187.339 59.8932 184.473 56.5194 182.675C54.1053 185.63 54.995 189.093 56.3792 191.994C58.0252 195.444 62.0593 197.921 65.9829 199.046C61.5236 198.224 56.7888 198.093 52.3924 198.583L51.9471 198.632C48.4142 199.021 43.815 199.526 41.4825 202.573C46.3214 205.408 52.6626 206.419 57.9118 205.382C61.4295 204.688 66.1996 203.416 67.5351 199.422Z" fill="#282F42"/>
    </g>
    <path d="M242.9 158.749L180.37 182.114C175.34 183.994 170.083 183.994 165.716 182.114L103.535 155.353C101.294 154.389 99.3566 152.958 97.8363 151.146L86.7521 137.937C83.7348 134.341 82.5435 129.464 83.4402 124.379L95.8248 54.142C97.2007 46.3388 103.241 39.314 111.1 36.3775L173.63 13.0129C178.659 11.1335 183.917 11.1335 188.283 13.0129L250.465 39.7737C252.705 40.738 254.643 42.1683 256.163 43.9801L267.247 57.1897C270.265 60.7855 271.456 65.6625 270.559 70.7478L258.175 140.985C256.799 148.788 250.758 155.813 242.9 158.749Z" fill="#33456B"/>
    <path d="M240.075 119.414C238.699 127.217 232.658 134.242 224.799 137.178L162.27 160.543C157.24 162.423 151.983 162.423 147.616 160.543L93.326 137.178C86.5028 134.242 82.9397 127.217 84.3156 119.414L95.8248 54.142C97.2007 46.3388 103.241 39.314 111.1 36.3775L173.63 13.0129C178.659 11.1335 183.917 11.1335 188.283 13.0129L242.573 36.3775C249.397 39.314 252.96 46.3388 251.584 54.142L240.075 119.414Z" fill="#445D8F"/>
    <path d="M218.76 128.241L161.442 149.659C158.298 150.833 155.012 150.833 152.283 149.659L102.517 128.241C98.2526 126.405 96.0257 122.015 96.8856 117.138L107.592 56.4178C108.452 51.5408 112.227 47.1503 117.139 45.3149L174.458 23.8974C177.601 22.7228 180.887 22.7228 183.617 23.8974L233.382 45.3149C237.647 47.1503 239.874 51.5408 239.014 56.4178L228.307 117.138C227.447 122.015 223.672 126.405 218.76 128.241Z" fill="#33456B"/>
    <path d="M134.749 112.684L144.693 56.2903H201.957L192.013 112.684H134.749Z" fill="#ADC9FF"/>
    <path d="M134.749 112.685H192.013L182.173 100.957L148.725 100.957L134.749 112.685Z" fill="#6B9CFF"/>
    <path d="M144.693 56.2903L134.749 112.684L148.725 100.957L154.533 68.0174L144.693 56.2903Z" fill="#85ADFF"/>
    <path d="M201.957 56.29H144.693L154.534 68.0172L187.982 68.0172L201.957 56.29Z" fill="#6B9CFF"/>
    <path d="M192.014 112.684L201.957 56.2903L187.982 68.0174L182.173 100.957L192.014 112.684Z" fill="#85ADFF"/>
    <path d="M127.86 84.487L175.383 44.6104L208.844 84.487L161.321 124.364L127.86 84.487Z" fill="#ADC9FF"/>
    <path d="M127.86 84.4873L161.321 124.364L164.245 107.779L144.701 84.4873H127.86Z" fill="#6B9CFF"/>
    <path d="M175.383 44.6104L127.86 84.487H144.701L172.459 61.1951L175.383 44.6104Z" fill="#85ADFF"/>
    <path d="M208.844 84.487L175.384 44.6104L172.459 61.1951L192.004 84.487H208.844Z" fill="#6B9CFF"/>
    <path d="M161.321 124.364L208.844 84.4873H192.004L164.246 107.779L161.321 124.364Z" fill="#85ADFF"/>
    <g filter="url(#filter0_i_1316_17248)">
        <path d="M93.8549 163.434L163.401 193.366C164.704 193.926 166.07 194.353 167.481 194.646L146.902 170.121C145.491 169.828 144.124 169.401 142.821 168.84L102.506 151.489L96.2903 148.814L83.1396 143.154C74.6106 139.483 70.1568 130.702 71.8766 120.948L70.7823 127.155C69.6615 133.511 71.1506 139.608 74.9222 144.102L86.7319 158.177C88.6323 160.441 91.0543 162.229 93.8549 163.434Z" fill="#80A9FF" fill-opacity="0.22"/>
        <path d="M181.719 193.366L250.458 167.68C255.103 165.945 259.239 163.067 262.491 159.484L241.912 134.958C238.66 138.541 234.523 141.419 229.879 143.154L161.139 168.84C156.353 170.628 151.401 171.055 146.902 170.121L167.481 194.646C171.981 195.581 176.932 195.154 181.719 193.366Z" fill="#80A9FF" fill-opacity="0.4"/>
        <path d="M269.552 145.474L283.218 67.9721C284.339 61.6155 282.849 55.5192 279.078 51.0244L267.268 36.9503C265.368 34.6855 262.946 32.8976 260.145 31.6922L250.281 27.4469C258.81 31.1176 263.264 39.8987 261.544 49.6527L248.972 120.949C248.066 126.091 245.538 130.963 241.912 134.958L262.491 159.484C266.118 155.489 268.645 150.617 269.552 145.474Z" fill="#80A9FF" fill-opacity="0.22"/>
        <path d="M172.282 1.7619L103.542 27.4469C93.7185 31.1176 86.1679 39.8987 84.448 49.6527L71.8766 120.948C70.1568 130.702 74.6106 139.483 83.1396 143.154L96.2903 148.814L102.506 151.489L142.821 168.84C144.124 169.401 145.491 169.828 146.902 170.121C151.401 171.055 156.353 170.628 161.139 168.84L229.879 143.154C234.523 141.419 238.66 138.541 241.912 134.958C245.538 130.963 248.066 126.091 248.972 120.949L261.544 49.6527C263.264 39.8987 258.81 31.1176 250.281 27.4469L216.281 12.8145L203.923 7.49599L190.599 1.7619C185.141 -0.587302 178.569 -0.587302 172.282 1.7619Z" fill="white" fill-opacity="0.1" style="mix-blend-mode:overlay"/>
    </g>
    <g filter="url(#filter1_i_1316_17248)">
        <path d="M172.282 1.7619L103.542 27.4469C93.7185 31.1176 86.1679 39.8987 84.448 49.6527L71.8766 120.948C70.1568 130.702 74.6106 139.483 83.1396 143.154L96.2903 148.814L102.506 151.489L142.821 168.84C144.124 169.401 145.491 169.828 146.902 170.121C151.401 171.055 156.353 170.628 161.139 168.84L229.879 143.154C234.523 141.419 238.66 138.541 241.912 134.958C245.538 130.963 248.066 126.091 248.972 120.949L261.544 49.6527C263.264 39.8987 258.81 31.1176 250.281 27.4469L216.281 12.8145L203.923 7.49599L190.599 1.7619C185.141 -0.587302 178.569 -0.587302 172.282 1.7619Z" fill="white" fill-opacity="0.03"/>
    </g>
    <mask id="mask0_1316_17248" style="mask-type:alpha" maskUnits="userSpaceOnUse" x="41" y="0" width="237" height="196">
        <path d="M225.696 158.749L163.167 182.114C158.137 183.994 152.88 183.994 148.513 182.114L86.3316 155.353C84.0911 154.389 82.1534 152.958 80.6331 151.146L69.549 137.937C66.5317 134.341 65.3404 129.464 66.237 124.379L78.6217 54.142C79.9976 46.3388 86.038 39.314 93.8969 36.3775L156.426 13.0129C161.456 11.1335 166.713 11.1335 171.08 13.0129L233.262 39.7737C235.502 40.738 237.44 42.1683 238.96 43.9801L250.044 57.1897C253.062 60.7855 254.253 65.6625 253.356 70.7478L240.972 140.985C239.596 148.788 233.555 155.813 225.696 158.749Z" fill="#33456B"/>
        <path d="M222.871 119.414C221.496 127.217 215.455 134.242 207.596 137.178L145.067 160.543C140.037 162.423 134.78 162.423 130.413 160.543L76.1229 137.178C69.2997 134.242 65.7366 127.217 67.1125 119.414L78.6217 54.142C79.9976 46.3388 86.038 39.314 93.8969 36.3775L156.426 13.0129C161.456 11.1335 166.713 11.1335 171.08 13.0129L225.37 36.3775C232.193 39.314 235.757 46.3388 234.381 54.142L222.871 119.414Z" fill="#445D8F"/>
        <path d="M201.557 128.241L144.238 149.659C141.095 150.833 137.809 150.833 135.08 149.659L85.314 128.241C81.0495 126.405 78.8225 122.015 79.6825 117.138L90.389 56.4178C91.249 51.5408 95.0243 47.1503 99.9361 45.3149L157.255 23.8974C160.398 22.7228 163.684 22.7228 166.413 23.8974L216.179 45.3149C220.444 47.1503 222.671 51.5408 221.811 56.4178L211.104 117.138C210.244 122.015 206.469 126.405 201.557 128.241Z" fill="#33456B"/>
        <path d="M110.588 84.404L158.111 44.5273L191.571 84.404L144.048 124.281L110.588 84.404Z" fill="#FFC9AD"/>
        <path d="M110.588 84.4043L144.048 124.281L146.973 107.696L127.428 84.4043H110.588Z" fill="#FF9C6B"/>
        <path d="M158.111 44.5273L110.588 84.404H127.428L155.187 61.1121L158.111 44.5273Z" fill="#FFAD85"/>
        <path d="M191.572 84.404L158.111 44.5273L155.187 61.1121L174.731 84.404H191.572Z" fill="#FF9C6B"/>
        <path d="M144.049 124.281L191.572 84.4043H174.731L146.973 107.696L144.049 124.281Z" fill="#FFAD85"/>
        <path d="M76.6518 163.434L146.198 193.366C147.501 193.926 148.867 194.353 150.278 194.646L129.699 170.121C128.288 169.828 126.921 169.401 125.618 168.84L85.3027 151.489L79.0872 148.814L65.9365 143.154C57.4075 139.483 52.9536 130.702 54.6735 120.948L53.5792 127.155C52.4584 133.511 53.9475 139.608 57.7191 144.102L69.5288 158.177C71.4291 160.441 73.8512 162.229 76.6518 163.434Z" fill="#80A9FF" fill-opacity="0.22"/>
        <path d="M164.515 193.366L233.255 167.68C237.9 165.945 242.036 163.067 245.288 159.484L224.709 134.958C221.456 138.541 217.32 141.419 212.675 143.154L143.936 168.84C139.15 170.628 134.198 171.055 129.699 170.121L150.278 194.646C154.778 195.581 159.729 195.154 164.515 193.366Z" fill="#80A9FF" fill-opacity="0.4"/>
        <path d="M252.349 145.474L266.015 67.9721C267.136 61.6155 265.646 55.5192 261.875 51.0244L250.065 36.9503C248.165 34.6855 245.743 32.8976 242.942 31.6922L233.078 27.4469C241.607 31.1176 246.061 39.8987 244.341 49.6527L231.769 120.949C230.863 126.091 228.335 130.963 224.709 134.958L245.288 159.484C248.915 155.489 251.442 150.617 252.349 145.474Z" fill="#80A9FF" fill-opacity="0.22"/>
        <path d="M155.079 1.7619L86.339 27.4469C76.5154 31.1176 68.9648 39.8987 67.2449 49.6527L54.6735 120.948C52.9536 130.702 57.4075 139.483 65.9365 143.154L79.0872 148.814L85.3027 151.489L125.618 168.84C126.921 169.401 128.288 169.828 129.699 170.121C134.198 171.055 139.15 170.628 143.936 168.84L212.675 143.154C217.32 141.419 221.456 138.541 224.709 134.958C228.335 130.963 230.863 126.091 231.769 120.949L244.341 49.6527C246.061 39.8987 241.607 31.1176 233.078 27.4469L199.078 12.8145L186.72 7.49599L173.396 1.7619C167.937 -0.587302 161.366 -0.587302 155.079 1.7619Z" fill="white" fill-opacity="0.1"/>
        <path d="M155.079 1.7619L86.339 27.4469C76.5154 31.1176 68.9648 39.8987 67.2449 49.6527L54.6735 120.948C52.9536 130.702 57.4075 139.483 65.9365 143.154L79.0872 148.814L85.3027 151.489L125.618 168.84C126.921 169.401 128.288 169.828 129.699 170.121C134.198 171.055 139.15 170.628 143.936 168.84L212.675 143.154C217.32 141.419 221.456 138.541 224.709 134.958C228.335 130.963 230.863 126.091 231.769 120.949L244.341 49.6527C246.061 39.8987 241.607 31.1176 233.078 27.4469L199.078 12.8145L186.72 7.49599L173.396 1.7619C167.937 -0.587302 161.366 -0.587302 155.079 1.7619Z" fill="white" fill-opacity="0.03"/>
    </mask>
    <g mask="url(#mask0_1316_17248)">
        <g style="mix-blend-mode:overlay" filter="url(#filter2_f_1316_17248)">
            <rect x="147.418" y="14" width="24" height="128" transform="rotate(35 147.418 14)" fill="white"/>
        </g>
    </g>
    <defs>
        <filter id="filter0_i_1316_17248" x="70.418" y="0" width="213.164" height="195.128" filterUnits="userSpaceOnUse" color-interpolation-filters="sRGB">
            <feFlood flood-opacity="0" result="BackgroundImageFix"/>
            <feBlend mode="normal" in="SourceGraphic" in2="BackgroundImageFix" result="shape"/>
            <feColorMatrix in="SourceAlpha" type="matrix" values="0 0 0 0 0 0 0 0 0 0 0 0 0 0 0 0 0 0 127 0" result="hardAlpha"/>
            <feOffset dx="-4.56145" dy="-4.56145"/>
            <feComposite in2="hardAlpha" operator="arithmetic" k2="-1" k3="1"/>
            <feColorMatrix type="matrix" values="0 0 0 0 1 0 0 0 0 1 0 0 0 0 1 0 0 0 0.25 0"/>
            <feBlend mode="overlay" in2="shape" result="effect1_innerShadow_1316_17248"/>
        </filter>
        <filter id="filter1_i_1316_17248" x="71.5117" y="0" width="190.397" height="170.602" filterUnits="userSpaceOnUse" color-interpolation-filters="sRGB">
            <feFlood flood-opacity="0" result="BackgroundImageFix"/>
            <feBlend mode="normal" in="SourceGraphic" in2="BackgroundImageFix" result="shape"/>
            <feColorMatrix in="SourceAlpha" type="matrix" values="0 0 0 0 0 0 0 0 0 0 0 0 0 0 0 0 0 0 127 0" result="hardAlpha"/>
            <feOffset dx="4.56145" dy="4.56145"/>
            <feComposite in2="hardAlpha" operator="arithmetic" k2="-1" k3="1"/>
            <feColorMatrix type="matrix" values="0 0 0 0 1 0 0 0 0 1 0 0 0 0 1 0 0 0 0.35 0"/>
            <feBlend mode="overlay" in2="shape" result="effect1_innerShadow_1316_17248"/>
        </filter>
        <filter id="filter2_f_1316_17248" x="38" y="-22" width="165.077" height="190.617" filterUnits="userSpaceOnUse" color-interpolation-filters="sRGB">
            <feFlood flood-opacity="0" result="BackgroundImageFix"/>
            <feBlend mode="normal" in="SourceGraphic" in2="BackgroundImageFix" result="shape"/>
            <feGaussianBlur stdDeviation="18" result="effect1_foregroundBlur_1316_17248"/>
        </filter>
    </defs>
</svg>
