<svg width="178" height="233" viewBox="0 0 178 233" fill="none" xmlns="http://www.w3.org/2000/svg">
    <g style="mix-blend-mode:overlay">
        <g style="mix-blend-mode:overlay">
            <path d="M10.381 317.995L35.6538 275.309L57.2958 238.756L55.9448 231.422L48.1511 189.116L34.6185 211.868L29.2078 182.497L23.5143 151.592L-4.91239 201.023L6.65487 258.153L-34.8414 327.189L10.381 317.995Z" fill="white"/>
        </g>
        <g style="mix-blend-mode:overlay">
            <path d="M76.5585 238.626L50.3721 280.452L117.011 268.663L78.5948 60.1322L52.3866 107.415L76.5585 238.626Z" fill="white"/>
        </g>
        <g style="mix-blend-mode:overlay">
            <path d="M-89.1309 57.9712L-62.9227 10.688L78.5998 60.1409L52.3916 107.424L-89.1309 57.9712Z" fill="url(#paint0_linear_1310_48556)" fill-opacity="0.75"/>
        </g>
        <g style="mix-blend-mode:overlay">
            <path d="M76.5545 238.623L50.3681 280.449L35.6403 275.303L57.2823 238.75L55.9313 231.416L76.5545 238.623Z" fill="url(#paint1_linear_1310_48556)" fill-opacity="0.25"/>
        </g>
        <g style="mix-blend-mode:overlay">
            <path d="M52.3907 107.415L76.5625 238.625L55.9393 231.418L48.1457 189.113L29.2023 182.493L23.5089 151.588L-78.4471 115.961L-89.1318 57.9618L52.3907 107.415Z" fill="url(#paint2_linear_1310_48556)" fill-opacity="0.5"/>
        </g>
        <g style="mix-blend-mode:overlay">
            <path d="M48.1338 189.113L34.6012 211.864L29.1904 182.493L48.1338 189.113Z" fill="url(#paint3_linear_1310_48556)" fill-opacity="0.25"/>
        </g>
        <g style="mix-blend-mode:overlay">
            <path d="M-146.451 151.566L-118.024 102.135L-78.4577 115.961L23.4983 151.588L-4.92838 201.019L-146.451 151.566Z" fill="url(#paint4_linear_1310_48556)" fill-opacity="0.75"/>
        </g>
        <g style="mix-blend-mode:overlay">
            <path d="M-134.878 208.7L-146.445 151.57L-4.92273 201.023L6.64453 258.153L-134.878 208.7Z" fill="url(#paint5_linear_1310_48556)" fill-opacity="0.5"/>
        </g>
        <g style="mix-blend-mode:overlay">
            <path d="M-176.37 277.743L-134.874 208.707L6.64895 258.16L-34.8473 327.196L-176.37 277.743Z" fill="url(#paint6_linear_1310_48556)" fill-opacity="0.25"/>
        </g>
    </g>
    <defs>
        <linearGradient id="paint0_linear_1310_48556" x1="69.8116" y1="85.2906" x2="-80.3427" y2="32.8215" gradientUnits="userSpaceOnUse">
            <stop stop-color="white"/>
            <stop offset="1" stop-color="white" stop-opacity="0"/>
        </linearGradient>
        <linearGradient id="paint1_linear_1310_48556" x1="68.6171" y1="261.338" x2="43.5776" y2="252.588" gradientUnits="userSpaceOnUse">
            <stop stop-color="white"/>
            <stop offset="1" stop-color="white" stop-opacity="0"/>
        </linearGradient>
        <linearGradient id="paint2_linear_1310_48556" x1="95.6774" y1="183.922" x2="-108.247" y2="112.664" gradientUnits="userSpaceOnUse">
            <stop stop-color="white"/>
            <stop offset="1" stop-color="white" stop-opacity="0"/>
        </linearGradient>
        <linearGradient id="paint3_linear_1310_48556" x1="43.855" y1="201.357" x2="24.9116" y2="194.738" gradientUnits="userSpaceOnUse">
            <stop stop-color="white"/>
            <stop offset="1" stop-color="white" stop-opacity="0"/>
        </linearGradient>
        <linearGradient id="paint4_linear_1310_48556" x1="14.255" y1="178.04" x2="-137.208" y2="125.114" gradientUnits="userSpaceOnUse">
            <stop stop-color="white"/>
            <stop offset="1" stop-color="white" stop-opacity="0"/>
        </linearGradient>
        <linearGradient id="paint5_linear_1310_48556" x1="14.9106" y1="234.498" x2="-154.711" y2="175.226" gradientUnits="userSpaceOnUse">
            <stop stop-color="white"/>
            <stop offset="1" stop-color="white" stop-opacity="0"/>
        </linearGradient>
        <linearGradient id="paint6_linear_1310_48556" x1="-6.35814" y1="295.383" x2="-163.363" y2="240.52" gradientUnits="userSpaceOnUse">
            <stop stop-color="white"/>
            <stop offset="1" stop-color="white" stop-opacity="0"/>
        </linearGradient>
    </defs>
</svg>
