<svg width="214" height="221" viewBox="0 0 214 221" fill="none" xmlns="http://www.w3.org/2000/svg">
    <path d="M42.8555 73H204.855C209.826 73 213.855 68.9706 213.855 64V-46H33.8555V64C33.8555 68.9706 37.8849 73 42.8555 73Z" fill="#1B2233"/>
    <path d="M42.8555 73H204.855C209.826 73 213.855 68.9706 213.855 64H207.855C207.855 65.6569 206.512 67 204.855 67H42.8555C41.1986 67 39.8555 65.6569 39.8555 64H33.8555C33.8555 68.9706 37.8849 73 42.8555 73Z" fill="#27314A"/>
    <path d="M189.906 64.7869L136.476 30.3604C133.986 28.756 130.652 29.9529 129.606 32.7244C114.952 71.5753 81.9238 97.6724 37.9227 95.0334L47.8745 101.446C48.8207 101.408 50.4224 101.696 52.1752 102.262C54.8417 103.123 56.8482 104.301 56.6569 104.894C56.5091 105.351 55.0917 105.326 53.2245 104.893L61.6436 110.318C62.5178 110.437 63.5956 110.688 64.7376 111.056C67.404 111.917 69.4106 113.095 69.2193 113.688C69.115 114.011 68.3794 114.093 67.2998 113.962L75.7618 119.414C76.2512 119.533 76.7686 119.679 77.2999 119.851C79.9664 120.712 81.9729 121.89 81.7816 122.482C81.7215 122.669 81.4513 122.775 81.0262 122.806L88.4727 127.604L100.655 135.454C144.893 138.107 178.04 111.715 192.574 72.5175C193.64 69.6428 192.483 66.4475 189.906 64.7869Z" fill="url(#paint0_linear_0_1)"/>
    <path d="M15.6315 93.9502L68.1432 127.785C70.1181 129.057 72.2657 130.088 74.5194 130.752C83.592 133.423 92.3213 134.954 100.657 135.454L88.474 127.604L81.0275 122.806C80.1004 122.874 78.4366 122.587 76.6084 121.996C73.9419 121.136 71.9354 119.957 72.1267 119.365C72.2799 118.89 73.7959 118.935 75.763 119.414L67.301 113.962C66.3999 113.852 65.2592 113.594 64.046 113.202C61.3796 112.341 59.373 111.163 59.5643 110.57C59.6737 110.232 60.4778 110.158 61.6448 110.317L53.2257 104.893C52.677 104.765 52.0894 104.603 51.4837 104.408C48.8172 103.547 46.8107 102.369 47.002 101.776C47.0675 101.573 47.3826 101.465 47.8758 101.445L37.9239 95.0332C31.0997 94.6239 24.0115 93.5235 16.687 91.6721C15.4078 91.3488 14.5223 93.2356 15.6315 93.9502Z" fill="#1873F2"/>
    <path d="M15.6315 93.9502L68.1432 127.785C70.1181 129.057 72.2657 130.088 74.5194 130.752C83.592 133.423 92.3213 134.954 100.657 135.454L88.474 127.604L81.0275 122.806C80.1004 122.874 78.4366 122.587 76.6084 121.996C73.9419 121.136 71.9354 119.957 72.1267 119.365C72.2799 118.89 73.7959 118.935 75.763 119.414L67.301 113.962C66.3999 113.852 65.2592 113.594 64.046 113.202C61.3796 112.341 59.373 111.163 59.5643 110.57C59.6737 110.232 60.4778 110.158 61.6448 110.317L53.2257 104.893C52.677 104.765 52.0894 104.603 51.4837 104.408C48.8172 103.547 46.8107 102.369 47.002 101.776C47.0675 101.573 47.3826 101.465 47.8758 101.445L37.9239 95.0332C31.0997 94.6239 24.0115 93.5235 16.687 91.6721C15.4078 91.3488 14.5223 93.2356 15.6315 93.9502Z" fill="#1873F2"/>
    <path d="M15.6315 93.9502L68.1432 127.785C70.1181 129.057 72.2657 130.088 74.5194 130.752C83.592 133.423 92.3213 134.954 100.657 135.454L88.474 127.604L81.0275 122.806C80.1004 122.874 78.4366 122.587 76.6084 121.996C73.9419 121.136 71.9354 119.957 72.1267 119.365C72.2799 118.89 73.7959 118.935 75.763 119.414L67.301 113.962C66.3999 113.852 65.2592 113.594 64.046 113.202C61.3796 112.341 59.373 111.163 59.5643 110.57C59.6737 110.232 60.4778 110.158 61.6448 110.317L53.2257 104.893C52.677 104.765 52.0894 104.603 51.4837 104.408C48.8172 103.547 46.8107 102.369 47.002 101.776C47.0675 101.573 47.3826 101.465 47.8758 101.445L37.9239 95.0332C31.0997 94.6239 24.0115 93.5235 16.687 91.6721C15.4078 91.3488 14.5223 93.2356 15.6315 93.9502Z" fill="#36476B"/>
    <path d="M15.6315 93.9502L68.1432 127.785C70.1181 129.057 72.2657 130.088 74.5194 130.752C83.592 133.423 92.3213 134.954 100.657 135.454L88.474 127.604L81.0275 122.806C80.1004 122.874 78.4366 122.587 76.6084 121.996C73.9419 121.136 71.9354 119.957 72.1267 119.365C72.2799 118.89 73.7959 118.935 75.763 119.414L67.301 113.962C66.3999 113.852 65.2592 113.594 64.046 113.202C61.3796 112.341 59.373 111.163 59.5643 110.57C59.6737 110.232 60.4778 110.158 61.6448 110.317L53.2257 104.893C52.677 104.765 52.0894 104.603 51.4837 104.408C48.8172 103.547 46.8107 102.369 47.002 101.776C47.0675 101.573 47.3826 101.465 47.8758 101.445L37.9239 95.0332C31.0997 94.6239 24.0115 93.5235 16.687 91.6721C15.4078 91.3488 14.5223 93.2356 15.6315 93.9502Z" fill="#36476B"/>
    <path d="M134.026 105.635L102.785 85.4307L104.427 95.6695L108.959 94.1373L127.438 106.088C128.888 107.026 129.711 106.751 130.209 106.67L134.026 105.635Z" fill="#445780"/>
    <path d="M117.697 102.166L110.261 97.357L101.593 100.052L102.589 106.786L110.114 104.52L116.91 108.915C118.25 109.782 119.54 109.782 120.118 109.739L123.918 108.609L115.151 102.939L117.697 102.166Z" fill="#445780"/>
    <path d="M204.856 61H42.8557C41.5494 61 40.4382 61.8348 40.0264 63H207.685C207.273 61.8348 206.162 61 204.856 61Z" fill="black" fill-opacity="0.2"/>
    <path d="M33.8555 -46V64C33.8555 59.0294 37.8849 55 42.8555 55H204.855C209.826 55 213.855 59.0294 213.855 64V-46H33.8555Z" fill="url(#paint1_linear_0_1)"/>
    <path d="M204.855 55H42.8555C37.8849 55 33.8555 59.0294 33.8555 64H39.8555C39.8555 63.6494 39.9156 63.3128 40.0262 63C40.438 61.8348 41.5493 61 42.8555 61H204.855C206.162 61 207.273 61.8348 207.685 63C207.795 63.3128 207.855 63.6494 207.855 64H213.855C213.855 59.0294 209.826 55 204.855 55Z" fill="#27314A"/>
    <path d="M136.855 18H109.855L114.891 23.9806L117.049 21.0718H133.019C134.273 21.0718 134.665 20.5463 134.937 20.2835L136.855 18Z" fill="#2D3A57"/>
    <path d="M125.538 22.6214H119.111L114.891 28.0311L118.152 32L121.845 27.3515H127.718C128.876 27.3515 129.662 26.8078 129.998 26.5359L131.868 24.1981H124.291L125.538 22.6214Z" fill="#2D3A57"/>
    <path d="M177.055 181.594L145.866 156.742C144.412 155.584 142.256 156.121 141.429 157.786C129.837 181.117 107.577 195.331 80.2748 190.916L86.084 195.545C86.677 195.581 87.6588 195.862 88.7174 196.325C90.3278 197.03 91.5063 197.892 91.3496 198.25C91.2285 198.526 90.3454 198.421 89.207 198.033L94.1215 201.949C94.6597 202.079 95.3167 202.303 96.0064 202.605C97.6169 203.31 98.7954 204.172 98.6387 204.53C98.5533 204.725 98.0889 204.73 97.4232 204.58L102.363 208.516C102.661 208.621 102.975 208.745 103.295 208.886C104.906 209.591 106.084 210.452 105.928 210.81C105.878 210.923 105.703 210.972 105.436 210.965L116.894 220.095C144.343 224.534 166.695 210.143 178.234 186.588C179.08 184.86 178.559 182.793 177.055 181.594Z" fill="url(#paint2_linear_0_1)"/>
    <path d="M66.4273 188.838L97.0801 213.263C98.233 214.182 99.5088 214.96 100.874 215.516C106.37 217.754 111.722 219.259 116.894 220.095L105.436 210.965C104.853 210.949 103.833 210.665 102.729 210.182C101.118 209.477 99.9399 208.615 100.097 208.257C100.222 207.971 101.165 208.094 102.363 208.516L97.4232 204.58C96.8676 204.455 96.1724 204.222 95.4397 203.902C93.8293 203.196 92.6508 202.335 92.8075 201.977C92.8971 201.772 93.403 201.776 94.1215 201.949L89.207 198.033C88.8724 197.92 88.5165 197.782 88.1507 197.621C86.5403 196.916 85.3618 196.055 85.5185 195.697C85.5721 195.574 85.7749 195.526 86.084 195.545L80.2748 190.916C76.0404 190.231 71.6855 189.099 67.2295 187.482C66.4513 187.2 65.7798 188.322 66.4273 188.838Z" fill="url(#paint3_linear_0_1)"/>
    <path d="M66.4273 188.838L97.0801 213.263C98.233 214.182 99.5088 214.96 100.874 215.516C106.37 217.754 111.722 219.259 116.894 220.095L105.436 210.965C104.853 210.949 103.833 210.665 102.729 210.182C101.118 209.477 99.9399 208.615 100.097 208.257C100.222 207.971 101.165 208.094 102.363 208.516L97.4232 204.58C96.8676 204.455 96.1724 204.222 95.4397 203.902C93.8293 203.196 92.6508 202.335 92.8075 201.977C92.8971 201.772 93.403 201.776 94.1215 201.949L89.207 198.033C88.8724 197.92 88.5165 197.782 88.1507 197.621C86.5403 196.916 85.3618 196.055 85.5185 195.697C85.5721 195.574 85.7749 195.526 86.084 195.545L80.2748 190.916C76.0404 190.231 71.6855 189.099 67.2295 187.482C66.4513 187.2 65.7798 188.322 66.4273 188.838Z" fill="url(#paint4_linear_0_1)"/>
    <path d="M139.602 203.58L121.37 189.002L121.751 195.497L124.677 194.826L135.46 203.448C136.307 204.125 136.838 204.005 137.154 203.986L139.602 203.58Z" fill="#445780"/>
    <path d="M129.626 200.387L125.287 196.917L119.706 198.054L119.904 202.321L124.745 201.38L128.711 204.551C129.493 205.176 130.298 205.257 130.662 205.267L133.105 204.801L127.988 200.709L129.626 200.387Z" fill="#445780"/>
    <defs>
        <linearGradient id="paint0_linear_0_1" x1="154.802" y1="44.3057" x2="84.9105" y2="123.713" gradientUnits="userSpaceOnUse">
            <stop stop-color="#36476B"/>
            <stop offset="0.551484" stop-color="#293652"/>
            <stop offset="1" stop-color="#36476B"/>
        </linearGradient>
        <linearGradient id="paint1_linear_0_1" x1="33.8555" y1="9" x2="213.855" y2="9" gradientUnits="userSpaceOnUse">
            <stop stop-color="#20293D"/>
            <stop offset="0.0513237" stop-color="#253047"/>
            <stop offset="0.100301" stop-color="#20293D"/>
            <stop offset="0.898453" stop-color="#20293D"/>
            <stop offset="0.94743" stop-color="#253047"/>
            <stop offset="1" stop-color="#20293D"/>
        </linearGradient>
        <linearGradient id="paint2_linear_0_1" x1="157.856" y1="165.5" x2="100.211" y2="219.678" gradientUnits="userSpaceOnUse">
            <stop stop-color="#36476B"/>
            <stop offset="0.521243" stop-color="#293652"/>
            <stop offset="1" stop-color="#36476B"/>
        </linearGradient>
        <linearGradient id="paint3_linear_0_1" x1="157.856" y1="165.5" x2="100.211" y2="219.678" gradientUnits="userSpaceOnUse">
            <stop stop-color="#36476B"/>
            <stop offset="0.521243" stop-color="#293652"/>
            <stop offset="1" stop-color="#36476B"/>
        </linearGradient>
        <linearGradient id="paint4_linear_0_1" x1="157.856" y1="165.5" x2="100.211" y2="219.678" gradientUnits="userSpaceOnUse">
            <stop stop-color="#36476B"/>
            <stop offset="0.521243" stop-color="#293652"/>
            <stop offset="1" stop-color="#36476B"/>
        </linearGradient>
    </defs>
</svg>
