<svg width="183" height="149" viewBox="0 0 183 149" fill="none" xmlns="http://www.w3.org/2000/svg">
    <ellipse cx="91.5" cy="134" rx="91.5" ry="15" fill="black" fill-opacity="0.15"/>
    <path d="M43.5 45.9998C67.5 47.9998 110 11.9993 142.499 45.9998C111 41 75.5 73 43.5 45.9998Z" fill="#1C2438"/>
    <path d="M142.499 45.9998C111 41 75.5 73 43.5 45.9998C37.0435 45.4618 28.0351 51.8717 28.2442 61.5019C28.2776 63.0365 29.3645 64.445 30.7115 65.181C31.0232 65.3512 31.2998 65.4859 31.4928 65.5364C74.7725 76.8603 129.988 70.4735 154.46 65.4323C154.824 65.3573 155.347 65.2382 155.902 65.1088C157.475 64.7423 158.742 63.4597 158.738 61.8448C158.714 52.2273 148.923 45.4646 142.499 45.9998Z"
          fill="#2B3754"/>
    <path d="M154.46 65.4323C129.988 70.4735 74.7725 76.8603 31.4928 65.5364C41.6745 73.2103 63.6217 77.0034 86.5 77.4616C86.5107 77.4617 86.5214 77.4619 86.5323 77.4623C114.218 78.0129 143.26 73.6805 154.46 65.4323Z"
          fill="#1F283D"/>
    <path d="M27.5004 101.5C29.1876 109 25.0002 113.499 15.4995 115.5C32.5 117.5 56.5 116 46 114C35.4199 111.985 29.3336 104.5 27.5004 101.5Z"
          fill="#1D2538"/>
    <path d="M170.5 115.5C160.999 113.499 156.812 109 158.499 101.5C157.899 102.899 157.562 104.389 157.236 105.829C156.205 110.389 155.288 114.442 146.5 113.5C132.5 112 149 121.5 170.5 115.5Z"
          fill="#1C2538"/>
    <path d="M15.4995 115.5C8.55202 116.962 6.79838 125.46 25.0002 131C36.4997 134.5 62.9997 138.631 92.9997 138.631C92.7095 137.784 92.1762 137.073 91.5553 136.245C88.9662 132.793 84.0003 112.828 99 105.829C115.774 98.0009 88.9644 77.9037 86.7536 77.4876C86.6756 77.4729 86.6016 77.4646 86.5323 77.4623C86.5214 77.4619 86.5107 77.4617 86.5 77.4616C63.6217 77.0034 41.6745 73.2103 31.4928 65.5364C26.3838 76.9831 24.6493 88.8252 27.5004 101.5C29.3336 104.5 35.4199 111.985 46 114C56.5 116 32.5 117.5 15.4995 115.5Z"
          fill="#232E47"/>
    <path fill-rule="evenodd" clip-rule="evenodd"
          d="M86.7536 77.4876C86.6756 77.4729 86.6016 77.4646 86.5323 77.4623C114.218 78.0129 143.26 73.6805 154.46 65.4323C159.605 76.9113 161.359 88.7868 158.499 101.5C157.899 102.899 157.562 104.389 157.236 105.829C156.205 110.389 155.288 114.442 146.5 113.5C132.5 112 149 121.5 170.5 115.5C177.447 116.962 179.201 125.46 160.999 131C157.666 132.014 153.073 133.082 147.5 134.086C130.5 123.5 122.5 118 118 102.5C111.679 80.7285 96.1026 78.5605 86.7536 77.4876Z"
          fill="#212B42"/>
    <path d="M99 105.829C84.0003 112.828 88.9662 132.793 91.5553 136.245C92.1762 137.073 92.7095 137.784 92.9997 138.631C114.305 138.631 133.844 136.548 147.5 134.086C130.5 123.5 122.5 118 118 102.5C111.679 80.7285 96.1026 78.5605 86.7536 77.4876C88.9644 77.9037 115.774 98.0009 99 105.829Z"
          fill="#202A40"/>
    <path d="M70 40.2257C59.9734 43.6483 50.8655 46.6136 43.5 45.9998C58 47.2082 77.2342 44.1975 95.5 37.5C110.5 32 132.666 40.3333 142.499 45.9998C119.974 22.434 92.6443 32.4961 70 40.2257Z"
          fill="#181E2E"/>
    <path d="M110 89H76L82.341 101.388L85.0586 95.3631H105.169C106.748 95.3631 107.242 94.2744 107.584 93.7301L110 89Z"
          fill="#314061"/>
    <path d="M95.7478 98.5728H87.6554L82.341 109.779L86.4476 118L91.0977 108.371H98.4936C99.9518 108.371 100.941 107.245 101.364 106.682L103.719 101.839H94.1776L95.7478 98.5728Z"
          fill="#314061"/>
    <path fill-rule="evenodd" clip-rule="evenodd"
          d="M48 11.0771C49 16.2437 52 24.0771 63 25.5769C65 20.0771 70.5 16.5771 78.5 19.0771C68.5 15.9389 63.3333 5.14754 62 0.144163C55.2597 1.10135 49.85 6.63695 48 11.0771Z"
          fill="#1873F2"/>
    <path d="M78.5 19.0771C74.6667 15.2438 69.1 6.67661 69.5 1.07661C66.9002 0.0366955 64.368 -0.192111 62 0.144163C63.3333 5.14754 68.5 15.9389 78.5 19.0771Z"
          fill="#2E85FF"/>
    <path fill-rule="evenodd" clip-rule="evenodd"
          d="M105 21.3945C102.5 29.7969 97.5 35.7482 85 37.6009C93.5 39.028 112.5 38.2939 120.5 23.941C118.472 20.6217 114.018 18.4313 105 21.3945Z"
          fill="#1873F2"/>
    <path d="M85 37.6009C95 44.5487 116.844 40.3015 122 29.7969C122 27.9527 121.62 25.7746 120.5 23.941C112.5 38.2939 93.5 39.028 85 37.6009Z"
          fill="#2E85FF"/>
    <path d="M85 37.6009C95 44.5487 116.844 40.3015 122 29.7969C115 49 97 45.9382 85 37.6009Z" fill="black"
          fill-opacity="0.25"/>
    <path fill-rule="evenodd" clip-rule="evenodd"
          d="M135.5 76.5C139 77.6667 147 78.8 151 74C148.6 58 141 48.3363 137.5 45.5044C131.607 45.2503 125.592 46.0866 119.5 47.4082C119.721 47.5109 119.958 47.6186 120.208 47.7323C125.642 50.2038 137.412 55.557 135.5 76.5Z"
          fill="#1873F2"/>
    <path d="M151 74C152.2 58.8 145.833 49.0001 142.499 46.0001C140.843 45.7373 139.177 45.5767 137.5 45.5044C141 48.3363 148.6 58 151 74Z"
          fill="#2E85FF"/>
    <path d="M120.208 47.7323C119.958 47.6186 119.721 47.5109 119.5 47.4082C127 55.5 131 61 135.5 76.5C137.412 55.557 125.642 50.2038 120.208 47.7323Z"
          fill="black" fill-opacity="0.3"/>
    <path fill-rule="evenodd" clip-rule="evenodd"
          d="M60.9999 80.5004C65.1666 81.667 74.5999 83.2004 78.9999 80.0004C79.0474 77.7507 79.3366 74.8236 79.9859 71.7485C81.486 64.6443 84.9082 56.7501 91.7139 54.5937C92.3093 54.4581 92.9046 54.3186 93.4999 54.1758C92.8801 54.2721 92.2851 54.4127 91.7139 54.5937C90.1426 54.9515 88.5711 55.2822 87 55.5761C79.1666 58.2176 62.9998 66.9007 60.9999 80.5004Z"
          fill="#1873F2"/>
    <path d="M62.4693 70.7481C61.3075 73.5265 60.7194 76.7608 60.9999 80.5004C62.9998 66.9007 79.1666 58.2176 87 55.5761C85.3325 55.888 83.6655 56.1583 81.9999 56.3755C76.2528 57.4291 66.2781 61.6388 62.4693 70.7481Z"
          fill="#2E85FF"/>
    <path d="M79.9859 71.7485C79.3366 74.8236 79.0474 77.7507 78.9999 80.0004C84 65 86.5 63 93.4999 54.1758C92.9046 54.3186 92.3093 54.4581 91.7139 54.5937C84.9082 56.7501 81.486 64.6443 79.9859 71.7485Z"
          fill="black" fill-opacity="0.3"/>
</svg>
