<svg width="144" height="124" viewBox="0 0 144 124" fill="none" xmlns="http://www.w3.org/2000/svg">
    <g style="mix-blend-mode:overlay">
        <g style="mix-blend-mode:overlay">
            <path d="M34.8155 84.9385L47.3419 66.1082L58.0687 49.9831L61.3478 49.086L80.265 43.9105L73.6008 53.9726L86.7341 50.3796L100.554 46.5988L85.8814 68.0599L60.129 74.6207L39.9929 105.331L34.8155 84.9385Z" fill="white"/>
        </g>
        <g style="mix-blend-mode:overlay">
            <path d="M54.305 42.0435L42.3123 61.0789L33.9603 31.3776L127.205 5.8674L112.976 25.9921L54.305 42.0435Z" fill="white"/>
        </g>
        <g style="mix-blend-mode:overlay">
            <path d="M161.306 74.3214L175.535 54.1966L127.206 5.86743L112.977 25.9921L161.306 74.3214Z" fill="url(#paint0_linear_462_3220)" fill-opacity="0.75"/>
        </g>
        <g style="mix-blend-mode:overlay">
            <path d="M54.3056 42.0433L42.3129 61.0787L47.3423 66.1082L58.0691 49.9831L61.3483 49.086L54.3056 42.0433Z" fill="url(#paint1_linear_462_3220)" fill-opacity="0.25"/>
        </g>
        <g style="mix-blend-mode:overlay">
            <path d="M112.976 25.9921L54.3047 42.0435L61.3474 49.0862L80.2646 43.9107L86.7337 50.3798L100.553 46.599L135.371 81.4165L161.305 74.3213L112.976 25.9921Z" fill="url(#paint2_linear_462_3220)" fill-opacity="0.5"/>
        </g>
        <g style="mix-blend-mode:overlay">
            <path d="M80.265 43.9105L73.6008 53.9726L86.7341 50.3796L80.265 43.9105Z" fill="url(#paint3_linear_462_3220)" fill-opacity="0.25"/>
        </g>
        <g style="mix-blend-mode:overlay">
            <path d="M134.211 116.389L148.883 94.9282L135.371 81.4164L100.553 46.5989L85.8813 68.06L134.211 116.389Z" fill="url(#paint4_linear_462_3220)" fill-opacity="0.75"/>
        </g>
        <g style="mix-blend-mode:overlay">
            <path d="M108.458 122.95L134.211 116.389L85.8813 68.0601L60.1289 74.6208L108.458 122.95Z" fill="url(#paint5_linear_462_3220)" fill-opacity="0.5"/>
        </g>
        <g style="mix-blend-mode:overlay">
            <path d="M88.3223 153.66L108.458 122.95L60.1292 74.6208L39.9931 105.331L88.3223 153.66Z" fill="url(#paint6_linear_462_3220)" fill-opacity="0.25"/>
        </g>
    </g>
    <defs>
        <linearGradient id="paint0_linear_462_3220" x1="118.617" y1="14.4559" x2="169.894" y2="65.7329" gradientUnits="userSpaceOnUse">
            <stop stop-color="white"/>
            <stop offset="1" stop-color="white" stop-opacity="0"/>
        </linearGradient>
        <linearGradient id="paint1_linear_462_3220" x1="46.5485" y1="49.8003" x2="55.0994" y2="58.3512" gradientUnits="userSpaceOnUse">
            <stop stop-color="white"/>
            <stop offset="1" stop-color="white" stop-opacity="0"/>
        </linearGradient>
        <linearGradient id="paint2_linear_462_3220" x1="72.9853" y1="23.3629" x2="142.624" y2="93.0019" gradientUnits="userSpaceOnUse">
            <stop stop-color="white"/>
            <stop offset="1" stop-color="white" stop-opacity="0"/>
        </linearGradient>
        <linearGradient id="paint3_linear_462_3220" x1="76.0834" y1="48.0921" x2="82.5525" y2="54.5612" gradientUnits="userSpaceOnUse">
            <stop stop-color="white"/>
            <stop offset="1" stop-color="white" stop-opacity="0"/>
        </linearGradient>
        <linearGradient id="paint4_linear_462_3220" x1="91.5201" y1="55.6322" x2="143.244" y2="107.356" gradientUnits="userSpaceOnUse">
            <stop stop-color="white"/>
            <stop offset="1" stop-color="white" stop-opacity="0"/>
        </linearGradient>
        <linearGradient id="paint5_linear_462_3220" x1="68.2072" y1="66.5426" x2="126.132" y2="124.468" gradientUnits="userSpaceOnUse">
            <stop stop-color="white"/>
            <stop offset="1" stop-color="white" stop-opacity="0"/>
        </linearGradient>
        <linearGradient id="paint6_linear_462_3220" x1="47.4176" y1="87.3324" x2="101.034" y2="140.949" gradientUnits="userSpaceOnUse">
            <stop stop-color="white"/>
            <stop offset="1" stop-color="white" stop-opacity="0"/>
        </linearGradient>
    </defs>
</svg>
