<svg width="161" height="161" viewBox="0 0 161 161" fill="none" xmlns="http://www.w3.org/2000/svg">
<ellipse cx="81" cy="156" rx="37" ry="5" fill="black" fill-opacity="0.11"/>
<g opacity="0.48">
<path d="M149.896 99.9616C150.616 98.2991 150.057 96.5318 149.408 95.065C148.694 93.4502 147.304 91.8853 145.581 91.1069C145.62 92.8019 146.326 94.3826 147.012 95.8725C147.693 97.3526 148.61 98.8917 149.896 99.9616Z" fill="#282F42"/>
<path d="M150.568 103.513C150.488 102.081 150.76 100.578 151.295 99.3433C151.765 98.2581 152.44 96.726 153.829 96.4138C154.504 98.0883 154.52 100.209 153.7 101.652C153.107 102.696 152.135 104.042 150.617 104.01C149.205 104.083 147.961 103.118 146.983 102.329C145.896 101.453 144.902 100.188 144.407 98.8054C145.839 98.3735 147.241 99.1762 148.277 99.8911C149.393 100.662 150.299 102.052 150.568 103.513Z" fill="#282F42"/>
<path d="M154.092 107.957C153.245 108.857 151.988 109.95 150.49 109.648C149.109 109.476 148.091 108.333 147.298 107.389C146.443 106.373 145.754 104.985 145.606 103.591C147.078 103.43 148.285 104.421 149.159 105.309C150.071 106.236 150.634 107.738 150.56 109.165C150.82 107.768 151.453 106.39 152.269 105.333C153.015 104.367 154.047 103.066 155.485 103.023C155.74 104.775 155.208 106.771 154.092 107.957Z" fill="#282F42"/>
<path d="M149.079 115.051C150.434 115.531 151.948 114.916 153.01 114.065C154.378 112.97 155.362 111.351 155.531 109.586C154.09 109.369 152.784 110.418 151.815 111.214C150.772 112.072 149.829 113.276 149.247 114.587C149.638 113.247 149.439 111.691 148.748 110.629C148.082 109.604 147.099 108.442 145.64 108.343C145.426 109.734 145.888 111.177 146.43 112.292C146.935 113.331 147.763 114.652 149.079 115.051Z" fill="#282F42"/>
<path d="M150.847 120.11C149.413 120.721 147.707 121.275 146.178 120.358C144.916 119.645 144.3 118.14 143.993 116.804C143.668 115.389 143.563 113.805 144.075 112.409C145.53 112.801 146.57 114.075 146.993 115.481C147.436 116.95 147.283 118.58 146.511 119.903C147.54 118.583 148.877 117.604 150.266 116.727C151.528 115.929 153.279 115.164 154.823 115.638C154.178 117.536 152.631 119.351 150.847 120.11Z" fill="#282F42"/>
<path d="M141.934 125.049C140.801 124.069 140.573 122.386 140.605 120.985C140.64 119.474 140.936 117.853 141.793 116.564C143.19 117.234 143.965 118.733 144.042 120.24C144.124 121.832 143.54 123.41 142.455 124.561C143.822 123.457 145.524 122.646 147.107 122.147C148.635 121.664 150.508 121.086 152.095 121.914C150.935 123.75 148.877 125.286 146.82 125.709C145.228 126.037 143.314 126.301 141.934 125.049Z" fill="#282F42"/>
<path d="M135.841 124.503C135.404 125.891 135.092 127.693 136.002 128.981C137.131 130.634 139.312 130.738 141.012 130.718C143.294 130.691 146.045 129.623 147.731 127.852C146.262 126.669 144.171 126.891 142.478 127.071L142.381 127.081C140.492 127.282 138.429 127.777 136.625 128.633C138.108 127.703 139.339 126.171 139.686 124.469C139.997 122.947 139.621 121.194 138.322 120.213C137.094 121.346 136.33 122.944 135.841 124.503Z" fill="#282F42"/>
<path d="M127.97 131.711C127.43 130.022 128.555 128.35 129.432 127.122C130.47 125.67 131.791 124.237 133.478 123.338C134.685 124.815 134.24 126.547 133.548 127.997C132.725 129.722 130.708 130.961 128.746 131.523C130.976 131.112 133.343 131.047 135.541 131.292L135.764 131.316C137.53 131.511 139.83 131.763 140.996 133.287C138.577 134.704 135.406 135.21 132.781 134.691C131.023 134.344 128.638 133.708 127.97 131.711Z" fill="#282F42"/>
</g>
<g opacity="0.48">
<path d="M11.8418 99.9616C11.1224 98.2991 11.6816 96.5318 12.3301 95.065C13.0439 93.4502 14.4341 91.8853 16.1575 91.1069C16.1183 92.8019 15.4118 94.3826 14.7262 95.8725C14.0453 97.3526 13.1287 98.8917 11.8418 99.9616Z" fill="#282F42"/>
<path d="M11.1701 103.513C11.2505 102.081 10.9781 100.578 10.4436 99.3433C9.97363 98.2581 9.29812 96.726 7.90889 96.4138C7.23437 98.0883 7.21855 100.209 8.03815 101.652C8.63084 102.696 9.60322 104.042 11.1216 104.01C12.5332 104.083 13.7772 103.118 14.7552 102.329C15.8426 101.453 16.8361 100.188 17.3314 98.8054C15.8994 98.3735 14.4968 99.1762 13.4612 99.8911C12.3449 100.662 11.4397 102.052 11.1701 103.513Z" fill="#282F42"/>
<path d="M7.64647 107.957C8.49297 108.857 9.74995 109.95 11.2486 109.648C12.6293 109.476 13.647 108.333 14.4407 107.389C15.2955 106.373 15.9841 104.985 16.1322 103.591C14.6606 103.43 13.4534 104.421 12.5795 105.309C11.6669 106.236 11.1041 107.738 11.178 109.165C10.9183 107.768 10.2848 106.39 9.46897 105.333C8.72312 104.367 7.69161 103.066 6.25316 103.023C5.99839 104.775 6.53012 106.771 7.64647 107.957Z" fill="#282F42"/>
<path d="M12.6595 115.051C11.304 115.531 9.79052 114.916 8.72813 114.065C7.36034 112.97 6.37591 111.351 6.20724 109.586C7.64862 109.369 8.95414 110.418 9.9228 111.214C10.9661 112.072 11.9092 113.276 12.491 114.587C12.1005 113.247 12.2991 111.691 12.9899 110.629C13.6567 109.604 14.639 108.442 16.0988 108.343C16.3122 109.734 15.8504 111.177 15.3084 112.292C14.8032 113.331 13.9756 114.652 12.6595 115.051Z" fill="#282F42"/>
<path d="M10.891 120.11C12.3251 120.721 14.0316 121.275 15.5607 120.358C16.822 119.645 17.4385 118.14 17.7454 116.804C18.0705 115.389 18.1749 113.805 17.6631 112.409C16.208 112.801 15.1687 114.075 14.7453 115.481C14.3027 116.95 14.4554 118.58 15.2277 119.903C14.1985 118.583 12.8611 117.604 11.4725 116.727C10.2101 115.929 8.45935 115.164 6.91558 115.638C7.55995 117.536 9.10765 119.351 10.891 120.11Z" fill="#282F42"/>
<path d="M19.8045 125.049C20.937 124.069 21.1657 122.386 21.1333 120.985C21.0982 119.474 20.8024 117.853 19.9451 116.564C18.5487 117.234 17.7736 118.733 17.696 120.24C17.6141 121.832 18.1983 123.41 19.2835 124.561C17.9162 123.457 16.2141 122.646 14.6317 122.147C13.1032 121.664 11.2307 121.086 9.64333 121.914C10.8028 123.75 12.8617 125.286 14.9179 125.709C16.5103 126.037 18.4239 126.301 19.8045 125.049Z" fill="#282F42"/>
<path d="M25.8977 124.503C26.334 125.891 26.6464 127.693 25.7364 128.981C24.607 130.634 22.4262 130.738 20.7264 130.718C18.4445 130.691 15.6929 129.623 14.0069 127.852C15.4762 126.669 17.5674 126.891 19.2602 127.071L19.3569 127.081C21.2464 127.282 23.3097 127.777 25.1131 128.633C23.6304 127.703 22.3994 126.171 22.0523 124.469C21.7416 122.947 22.1169 121.194 23.4167 120.213C24.6447 121.346 25.4079 122.944 25.8977 124.503Z" fill="#282F42"/>
<path d="M33.7685 131.711C34.3081 130.022 33.1835 128.35 32.3058 127.122C31.2682 125.67 29.9476 124.237 28.2607 123.338C27.0536 124.815 27.4985 126.547 28.1906 127.997C29.0136 129.722 31.0306 130.961 32.9924 131.523C30.7628 131.112 28.3954 131.047 26.1972 131.292L25.9745 131.316C24.2081 131.511 21.9085 131.763 20.7422 133.287C23.1617 134.704 26.3323 135.21 28.9569 134.691C30.7157 134.344 33.1008 133.708 33.7685 131.711Z" fill="#282F42"/>
</g>
<path d="M112.848 111.375L81.5835 123.057C79.0686 123.997 76.4398 123.997 74.2563 123.057L43.1658 109.676C42.0455 109.194 41.0767 108.479 40.3166 107.573L34.7745 100.968C33.2659 99.1705 32.6702 96.732 33.1185 94.1894L39.3108 59.071C39.9988 55.1694 43.019 51.657 46.9485 50.1887L78.2132 38.5065C80.728 37.5668 83.3567 37.5668 85.5402 38.5065L116.631 51.8868C117.751 52.369 118.72 53.0841 119.48 53.9901L125.022 60.5948C126.531 62.3928 127.126 64.8313 126.678 67.3739L120.486 102.492C119.798 106.394 116.778 109.906 112.848 111.375Z" fill="#33456B"/>
<path d="M111.436 91.707C110.748 95.6085 107.728 99.1209 103.798 100.589L72.5334 112.272C70.0186 113.211 67.3898 113.211 65.2063 112.272L38.0614 100.589C34.6498 99.1208 32.8683 95.6084 33.5562 91.7069L39.3108 59.071C39.9988 55.1694 43.019 51.657 46.9485 50.1887L78.2132 38.5065C80.728 37.5668 83.3567 37.5668 85.5402 38.5065L112.685 50.1887C116.097 51.657 117.878 55.1694 117.19 59.071L111.436 91.707Z" fill="#445D8F"/>
<path d="M100.778 96.1206L72.1187 106.83C70.5469 107.417 68.904 107.417 67.5393 106.83L42.6565 96.1205C40.5242 95.2028 39.4108 93.0076 39.8408 90.5691L45.194 60.2091C45.624 57.7706 47.5117 55.5754 49.9676 54.6577L78.6269 43.949C80.1986 43.3617 81.8416 43.3617 83.2062 43.949L108.089 54.6577C110.221 55.5754 111.335 57.7706 110.905 60.2091L105.552 90.5692C105.122 93.0077 103.234 95.2029 100.778 96.1206Z" fill="#33456B"/>
<path d="M55.33 74.2435L79.0916 54.3052L95.8219 74.2435L72.0603 94.1818L55.33 74.2435Z" fill="#E0EBFF"/>
<path d="M55.3301 74.2435L72.0603 94.1819L73.5225 85.8895L63.7504 74.2435H55.3301Z" fill="#9EBEFF"/>
<path d="M79.0916 54.3052L55.33 74.2435H63.7503L77.6294 62.5975L79.0916 54.3052Z" fill="#B8CFFF"/>
<path d="M95.822 74.2435L79.0918 54.3052L77.6296 62.5975L87.4018 74.2435H95.822Z" fill="#9EBEFF"/>
<path d="M72.0605 94.1819L95.8221 74.2435H87.4018L73.5227 85.8895L72.0605 94.1819Z" fill="#B8CFFF"/>
<g filter="url(#filter0_i_509_3945)">
<path d="M38.3259 113.717L73.0988 128.683C73.7503 128.963 74.4336 129.177 75.139 129.323L64.8494 117.06C64.1439 116.914 63.4606 116.7 62.809 116.42L42.6514 107.744L39.5436 106.407L32.9682 103.577C28.7037 101.742 26.4768 97.3512 27.3368 92.4742L26.7896 95.5773C26.2292 98.7556 26.9738 101.804 28.8595 104.051L34.7644 111.088C35.7146 112.221 36.9256 113.115 38.3259 113.717Z" fill="#80A9FF" fill-opacity="0.22"/>
<path d="M82.2577 128.683L116.628 115.84C118.95 114.972 121.018 113.533 122.644 111.742L112.354 99.479C110.728 101.27 108.66 102.709 106.338 103.577L71.9679 116.42C69.5748 117.314 67.0992 117.528 64.8494 117.06L75.139 129.323C77.3888 129.791 79.8645 129.577 82.2577 128.683Z" fill="#80A9FF" fill-opacity="0.4"/>
<path d="M126.174 104.737L133.007 65.986C133.568 62.8077 132.823 59.7596 130.937 57.5122L125.033 50.4751C124.082 49.3427 122.871 48.4488 121.471 47.8461L116.539 45.7235C120.803 47.5588 123.03 51.9493 122.17 56.8263L115.885 92.4743C115.431 95.0455 114.168 97.4814 112.354 99.479L122.644 111.742C124.457 109.744 125.721 107.308 126.174 104.737Z" fill="#80A9FF" fill-opacity="0.22"/>
<path d="M77.5393 32.881L43.1695 45.7235C38.2577 47.5588 34.4824 51.9493 33.6224 56.8263L27.3368 92.4742C26.4768 97.3512 28.7037 101.742 32.9682 103.577L39.5436 106.407L42.6514 107.744L62.809 116.42C63.4606 116.7 64.1439 116.914 64.8494 117.06C67.0992 117.528 69.5748 117.314 71.9679 116.42L106.338 103.577C108.66 102.709 110.728 101.27 112.354 99.479C114.168 97.4814 115.431 95.0455 115.885 92.4743L122.17 56.8263C123.03 51.9493 120.803 47.5588 116.539 45.7235L99.5389 38.4073L93.3598 35.748L86.698 32.881C83.9687 31.7063 80.6828 31.7063 77.5393 32.881Z" fill="white" fill-opacity="0.1" style="mix-blend-mode:overlay"/>
</g>
<g filter="url(#filter1_i_509_3945)">
<path d="M77.5393 32.881L43.1695 45.7235C38.2577 47.5588 34.4824 51.9493 33.6224 56.8263L27.3368 92.4742C26.4768 97.3512 28.7037 101.742 32.9682 103.577L39.5436 106.407L42.6514 107.744L62.809 116.42C63.4606 116.7 64.1439 116.914 64.8494 117.06C67.0992 117.528 69.5748 117.314 71.9679 116.42L106.338 103.577C108.66 102.709 110.728 101.27 112.354 99.479C114.168 97.4814 115.431 95.0455 115.885 92.4743L122.17 56.8263C123.03 51.9493 120.803 47.5588 116.539 45.7235L99.5389 38.4073L93.3598 35.748L86.698 32.881C83.9687 31.7063 80.6828 31.7063 77.5393 32.881Z" fill="white" fill-opacity="0.03"/>
</g>
<g style="mix-blend-mode:overlay" filter="url(#filter2_f_509_3945)">
<rect x="73.709" y="39" width="12" height="64" transform="rotate(35 73.709 39)" fill="white"/>
</g>
<defs>
<filter id="filter0_i_509_3945" x="26.6074" y="32" width="106.582" height="97.5638" filterUnits="userSpaceOnUse" color-interpolation-filters="sRGB">
<feFlood flood-opacity="0" result="BackgroundImageFix"/>
<feBlend mode="normal" in="SourceGraphic" in2="BackgroundImageFix" result="shape"/>
<feColorMatrix in="SourceAlpha" type="matrix" values="0 0 0 0 0 0 0 0 0 0 0 0 0 0 0 0 0 0 127 0" result="hardAlpha"/>
<feOffset dx="-2.28073" dy="-2.28073"/>
<feComposite in2="hardAlpha" operator="arithmetic" k2="-1" k3="1"/>
<feColorMatrix type="matrix" values="0 0 0 0 1 0 0 0 0 1 0 0 0 0 1 0 0 0 0.25 0"/>
<feBlend mode="overlay" in2="shape" result="effect1_innerShadow_509_3945"/>
</filter>
<filter id="filter1_i_509_3945" x="27.1543" y="32" width="95.1992" height="85.3009" filterUnits="userSpaceOnUse" color-interpolation-filters="sRGB">
<feFlood flood-opacity="0" result="BackgroundImageFix"/>
<feBlend mode="normal" in="SourceGraphic" in2="BackgroundImageFix" result="shape"/>
<feColorMatrix in="SourceAlpha" type="matrix" values="0 0 0 0 0 0 0 0 0 0 0 0 0 0 0 0 0 0 127 0" result="hardAlpha"/>
<feOffset dx="2.28073" dy="2.28073"/>
<feComposite in2="hardAlpha" operator="arithmetic" k2="-1" k3="1"/>
<feColorMatrix type="matrix" values="0 0 0 0 1 0 0 0 0 1 0 0 0 0 1 0 0 0 0.35 0"/>
<feBlend mode="overlay" in2="shape" result="effect1_innerShadow_509_3945"/>
</filter>
<filter id="filter2_f_509_3945" x="19" y="21" width="82.5391" height="95.3086" filterUnits="userSpaceOnUse" color-interpolation-filters="sRGB">
<feFlood flood-opacity="0" result="BackgroundImageFix"/>
<feBlend mode="normal" in="SourceGraphic" in2="BackgroundImageFix" result="shape"/>
<feGaussianBlur stdDeviation="9" result="effect1_foregroundBlur_509_3945"/>
</filter>
</defs>
</svg>
