<svg xmlns="http://www.w3.org/2000/svg" width="57" height="47" viewBox="0 0 57 47" fill="none">
    <path fill-rule="evenodd" clip-rule="evenodd"
          d="M19.5936 -0.972554C19.5936 -0.0995328 20.0667 0.663239 20.7702 1.07079L20.7808 1.07705L28.3201 5.43698C28.828 5.73496 29.4369 5.9109 30.0867 5.9109C30.7385 5.91088 31.3462 5.73483 31.8697 5.42739L31.8541 5.43573L39.3935 1.07579C39.7626 0.874747 40.0714 0.578501 40.2877 0.217658C40.5041 -0.143254 40.6202 -0.555792 40.6238 -0.976726V-2.625H45.7101C54.43 10.9464 54.43 36.0536 45.7101 49.625H33.0192C34.766 46.409 36.9133 44.1098 36.9133 40.2013H33.0158V41.3173C30.1351 41.3172 28.1693 38.4736 23.1534 41.3173V40.2013H19.5944V48.1569H23.1534C23.1534 43.5493 26.5765 45.8529 30.2708 45.8529C29.5632 46.9265 28.1671 48.0991 26.7969 49.625H11.2899C2.57004 36.0536 2.57004 10.9464 11.2899 -2.625H19.5936V-0.972554ZM22.2798 27.7339L24.8196 33.9566L27.6959 26.6685H32.2705C33.1724 26.6685 33.7844 25.8165 34.046 25.3902L35.5027 21.7249H29.6012L30.5721 19.2531H25.567L22.2798 27.7339ZM22.2798 21.3841L23.9605 16.8235H36.3995C37.3759 16.8234 37.6819 15.9998 37.8935 15.5878L39.3875 12.0076H18.3578L22.2798 21.3841Z"
          fill="white" fill-opacity="0.15"/>
    <path d="M33.0527 0.845512C33.2735 -0.102223 33.8729 -0.850076 34.4197 -0.734345C34.9665 -0.618504 35.2398 0.245242 35.019 1.23516V1.27688C34.8087 2.26562 34.1991 2.97246 33.6524 2.8463C33.1056 2.71994 32.8319 1.79322 33.0527 0.845512Z"
          fill="white" fill-opacity="0.15"/>
    <path d="M38.6812 -2.625C38.9304 -2.2647 39.0144 -1.63606 38.8678 -0.945855V-0.923744C38.6575 0.0650184 38.0369 0.771689 37.4902 0.654861C36.9434 0.537967 36.6806 -0.398453 36.8909 -1.35678C37.006 -1.881 37.2445 -2.33829 37.5258 -2.625H38.6812Z"
          fill="white" fill-opacity="0.15"/>
    <path d="M25.4494 -2.625C25.4328 -1.77894 25.0991 -1.11478 24.5987 -1.061C24.0606 -0.992437 23.532 -1.68056 23.3679 -2.625H25.4494Z"
          fill="white" fill-opacity="0.15"/>
    <path d="M34.1772 -2.625C34.0057 -2.51324 33.826 -2.46688 33.6524 -2.5036C33.562 -2.52274 33.4792 -2.5646 33.4048 -2.625H34.1772Z"
          fill="white" fill-opacity="0.15"/>
</svg>