<svg xmlns="http://www.w3.org/2000/svg" width="57" height="47" viewBox="0 0 57 47" fill="none">
    <path fill-rule="evenodd" clip-rule="evenodd" d="M47.6384 37.4974C49.5008 34.9574 50.8395 32.0723 51.5764 29.01C48.8409 29.4315 46.2362 30.4664 43.9573 32.037C45.2609 33.8043 46.489 35.6261 47.6384 37.4974ZM35.982 46.0042C39.3159 44.8865 42.3631 43.0489 44.9073 40.6216C43.6897 38.5585 42.3689 36.558 40.9498 34.628C38.0268 37.7286 36.2768 41.7518 36.0014 46.0042H35.982ZM40.2956 7.93944C40.2982 13.199 38.6204 18.3218 35.507 22.5608C37.6228 24.5774 39.6242 26.6955 41.4831 28.9517C44.6416 26.7241 48.3238 25.3538 52.1701 24.9747C52.2111 24.4781 52.25 24.0031 52.25 23.4892C52.25 14.4297 47.1634 6.55546 39.7019 2.55899C40.0797 4.29921 40.2956 6.0999 40.2956 7.93944ZM11.4407 7.01103C19.1426 10.1201 26.2828 14.4708 32.5772 19.89C35.0336 16.3898 36.3472 12.2156 36.3382 7.93944C36.3382 5.3874 35.8632 2.93467 35.0126 0.680579C32.8957 0.069843 30.7042 -0.24335 28.5011 -0.249989C25.3147 -0.253103 22.1606 0.388577 19.2286 1.63643C16.2967 2.88428 13.6476 4.71249 11.4407 7.01103ZM15.4003 32.8489C12.0538 32.8489 8.88875 32.1752 5.97842 30.9877C9.12624 40.423 18.0127 47.25 28.5011 47.25C29.6885 47.25 30.8371 47.1313 31.9835 46.9736C32.0558 41.1688 34.3841 35.6198 38.4756 31.5016C36.7546 29.4346 34.918 27.4666 32.9745 25.6073C30.6696 27.9126 27.9327 29.7406 24.9203 30.9865C21.908 32.2325 18.6795 32.8719 15.4197 32.8683L15.4003 32.8489Z" fill="white" fill-opacity="0.15"/>
    <path fill-rule="evenodd" clip-rule="evenodd" d="M30.0253 22.917C23.7431 17.4949 16.5722 13.1978 8.82829 10.2151C5.6759 14.8472 4.27952 20.4521 4.89029 26.0218C8.84235 28.3313 13.4444 29.2764 17.9867 28.7114C22.5291 28.1464 26.7594 26.1027 30.0253 22.8955V22.917Z" fill="white" fill-opacity="0.15"/>
</svg>