<svg width="30" height="30" viewBox="0 0 30 30" fill="none" xmlns="http://www.w3.org/2000/svg">
<path d="M9.525 13.2427C8.74808 14.8422 8.14053 16.5203 7.7125 18.2491C7.34922 19.7396 7.34922 21.2971 7.7125 22.7876L7.9375 23.7358L2.85 25C2.1818 22.2476 2.50071 19.3447 3.75 16.8078L0 17.7054V14.0139L9.175 11.7889L9.525 13.2427ZM30 14.646L29.7125 16.1125C28.3575 17.23 27.114 18.4791 26 19.842C25.0603 21.0457 24.4176 22.4585 24.125 23.9633L23.9375 24.9115L18.75 23.9507C19.2835 21.1815 20.761 18.6894 22.925 16.909L19.175 16.1631L20.75 12.8003L30 14.646Z" fill="#727E9B"/>
<path d="M22.5 7.45259C20.6745 9.70009 19.0827 12.1318 17.75 14.7092C16.6067 16.9357 16.0067 19.4065 16 21.9153V23.4956H10.1C10.1126 21.0131 10.6451 18.5614 11.6625 16.3021C12.7401 13.8828 14.159 11.6343 15.875 9.62705H7.125V5H22.5V7.45259Z" fill="#727E9B"/>
</svg>
