<svg width="12" height="16" viewBox="0 0 12 16" fill="none" xmlns="http://www.w3.org/2000/svg">
<path fill-rule="evenodd" clip-rule="evenodd" d="M2.59359 1.54351L5.29288 2.27476L5.89616 0L7.24581 0.370485L6.66602 2.55127L7.76688 2.85047L8.34774 0.645919L9.72087 1.01748L9.12934 3.23392C9.12934 3.23392 11.3716 3.73618 11.8991 5.58104C12.4266 7.42591 10.7395 8.39479 10.2184 8.43151C10.2184 8.43151 12.1831 9.52137 11.5083 11.6654C10.8335 13.8095 8.76203 14.1929 6.58273 13.7015L5.99119 16L4.61806 15.6284L5.22134 13.3656L4.13223 13.0653L3.52894 15.3444L2.16648 14.9739L2.77083 12.7056L0 11.9495L0.698314 10.3812C0.698314 10.3812 1.47991 10.5972 1.77568 10.6685C2.07145 10.7398 2.26151 10.4287 2.3448 10.1176C2.42808 9.80652 3.6827 4.65105 3.80122 4.22656C3.91974 3.80207 3.87169 3.47047 3.37412 3.33977C2.87654 3.20907 2.19958 3.00493 2.19958 3.00493L2.59359 1.54351ZM5.31637 8.37103L4.56894 11.377C4.56894 11.377 8.27513 12.7304 8.74921 10.8262C9.2233 8.92189 5.31637 8.37103 5.31637 8.37103ZM5.66019 6.94525L6.39374 4.19091C6.39374 4.19091 9.56712 4.76554 9.17632 6.29825C8.78552 7.83096 6.91481 7.24337 5.66019 6.94525Z" fill="white"/>
</svg>
