<svg width="14" height="12" viewBox="0 0 14 12" fill="none" xmlns="http://www.w3.org/2000/svg">
<path fill-rule="evenodd" clip-rule="evenodd" d="M8.42348 6.4509V6.44955C8.34376 6.45495 7.9328 6.47788 7.01595 6.47788C6.28391 6.47788 5.76859 6.45765 5.58739 6.44955V6.45158C2.76941 6.33624 0.66608 5.8796 0.66608 5.33326C0.66608 4.78759 2.76941 4.33095 5.58739 4.21359V5.99696C5.77149 6.0091 6.29913 6.03811 7.02827 6.03811C7.90309 6.03811 8.34158 6.00438 8.42348 5.99764V4.21494C11.2357 4.33163 13.3339 4.78826 13.3339 5.33326C13.3339 5.8796 11.2357 6.33489 8.42348 6.4509ZM8.42348 4.02945V2.43359H12.3475V0H1.66339V2.43359H5.58739V4.02878C2.39832 4.16503 0 4.75319 0 5.45737C0 6.16154 2.39832 6.74903 5.58739 6.88595V12H8.42348V6.8846C11.6075 6.74835 14 6.16087 14 5.45737C14 4.75386 11.6075 4.16638 8.42348 4.02945Z" fill="white"/>
</svg>
