<svg width="19" height="19" viewBox="0 0 19 19" fill="none" xmlns="http://www.w3.org/2000/svg">
  <path fill-rule="evenodd" clip-rule="evenodd" d="M1.9893 8.58866C6.66454 6.55172 9.7821 5.20884 11.342 4.56003C15.7957 2.70754 16.7212 2.38574 17.3244 2.37511C17.4571 2.37278 17.7537 2.40566 17.9459 2.56157C18.1081 2.69322 18.1527 2.87107 18.1741 2.99589C18.1955 3.12071 18.2221 3.40506 18.2009 3.62723C17.9596 6.16315 16.9152 12.3172 16.384 15.1574C16.1591 16.3593 15.7165 16.7622 15.2879 16.8017C14.3566 16.8874 13.6494 16.1862 12.7474 15.5949C11.3359 14.6696 10.5385 14.0936 9.16835 13.1907C7.58496 12.1473 8.61141 11.5738 9.51378 10.6365C9.74994 10.3913 13.8534 6.65884 13.9328 6.32025C13.9427 6.27791 13.9519 6.12006 13.8582 6.03671C13.7644 5.95336 13.626 5.98186 13.5261 6.00453C13.3846 6.03666 11.1297 7.52708 6.76144 10.4758C6.12139 10.9153 5.54166 11.1294 5.02224 11.1182C4.44962 11.1058 3.34813 10.7944 2.52928 10.5283C1.52494 10.2018 0.726703 10.0292 0.796212 9.47471C0.832416 9.18592 1.23011 8.89057 1.9893 8.58866Z" fill="#1873f2"/>
</svg>

