<svg width="19" height="19" viewBox="0 0 19 19" xmlns="http://www.w3.org/2000/svg">
<path d="M3.95866 11.875C2.20908 11.875 0.791992 13.2921 0.791992 15.0417C0.791992 15.6354 0.958242 16.1975 1.25116 16.6725C1.79741 17.5908 2.80283 18.2083 3.95866 18.2083C5.11449 18.2083 6.11991 17.5908 6.66616 16.6725C6.95908 16.1975 7.12533 15.6354 7.12533 15.0417C7.12533 13.2921 5.70824 11.875 3.95866 11.875ZM5.13824 15.6196H4.55241V16.2371C4.55241 16.5617 4.28324 16.8308 3.95866 16.8308C3.63408 16.8308 3.36491 16.5617 3.36491 16.2371V15.6196H2.77908C2.45449 15.6196 2.18533 15.3504 2.18533 15.0258C2.18533 14.7012 2.45449 14.4321 2.77908 14.4321H3.36491V13.87C3.36491 13.5454 3.63408 13.2763 3.95866 13.2763C4.28324 13.2763 4.55241 13.5454 4.55241 13.87V14.4321H5.13824C5.46283 14.4321 5.73199 14.7012 5.73199 15.0258C5.73199 15.3504 5.47074 15.6196 5.13824 15.6196Z" fill="currentColor"/>
<path d="M17.0205 9.896H15.0413C14.1705 9.896 13.458 10.6085 13.458 11.4793C13.458 12.3502 14.1705 13.0627 15.0413 13.0627H17.0205C17.2422 13.0627 17.4163 12.8885 17.4163 12.6668V10.2918C17.4163 10.0702 17.2422 9.896 17.0205 9.896Z" fill="currentColor"/>
<path d="M13.0865 4.27496C13.324 4.50454 13.126 4.86079 12.7935 4.86079L6.23854 4.85288C5.85854 4.85288 5.66854 4.39371 5.9377 4.12454L7.32312 2.73121C8.49479 1.56746 10.3869 1.56746 11.5585 2.73121L13.0548 4.24329C13.0627 4.25121 13.0785 4.26704 13.0865 4.27496Z" fill="currentColor"/>
<path d="M17.3142 14.7723C16.8313 16.4032 15.438 17.4165 13.538 17.4165H8.39215C8.0834 17.4165 7.88548 17.0761 8.01215 16.7911C8.24965 16.2369 8.40007 15.6115 8.40007 15.0415C8.40007 12.6428 6.44465 10.6873 4.0459 10.6873C3.44423 10.6873 2.8584 10.814 2.32007 11.0515C2.02715 11.1782 1.6709 10.9803 1.6709 10.6636V9.49984C1.6709 7.3465 2.96923 5.84234 4.98798 5.589C5.1859 5.55734 5.39965 5.5415 5.62132 5.5415H13.538C13.7438 5.5415 13.9417 5.54942 14.1317 5.58109C15.7309 5.76317 16.8867 6.73692 17.3142 8.18567C17.3934 8.44692 17.2034 8.70817 16.9342 8.70817H15.1213C13.4034 8.70817 12.0417 10.2757 12.4138 12.0569C12.6751 13.3553 13.8784 14.2498 15.2005 14.2498H16.9342C17.2113 14.2498 17.3934 14.519 17.3142 14.7723Z" fill="currentColor"/>
</svg>
