<svg width="422" height="133" viewBox="0 0 422 133" fill="none" xmlns="http://www.w3.org/2000/svg">
    <path d="M182.969 37.0691L168.805 67.2927L168.333 68.3005H257.272L235.825 113.536C231.872 118.926 222.851 129.35 209.677 129.35H140.286L140.096 129.757L97.3779 220.5L59.8916 143.51L109.1 37.0691H182.969ZM315.794 -54.4739L293.794 -10.2825C292.165 -7.61907 290.284 -3.85553 286.993 -0.698486C283.726 2.43595 279.066 4.96069 271.9 4.96069H83.9795L83.7939 5.38257L59.0684 61.6189L1.14258 -54.4739H315.794Z" stroke="white" stroke-opacity="0.3" stroke-width="1.41489"/>
    <path d="M191.934 89.1351C183.371 72.5785 185.91 43.5567 197.218 28.7385L206.238 29.5277L200.954 89.9243L191.934 89.1351Z" fill="#1B2438"/>
    <path d="M364.495 104.232C375.803 89.4141 378.342 60.3923 369.779 43.8357L360.759 43.0465L355.475 103.443L364.495 104.232Z" fill="#1B2438"/>
    <path d="M362.018 38.9276L360.027 35.0787L307.475 30.4809L294.788 29.371L272.308 27.4042L259.622 26.2943L207.069 21.6965L204.44 25.1414C197.597 34.1087 193.823 46.6631 192.763 58.7781C191.703 70.8931 193.24 83.9123 198.422 93.9317L200.412 97.7806L252.965 102.378L265.652 103.488L288.132 105.455L300.818 106.565L353.371 111.163L356 107.718C362.843 98.7506 366.617 86.1962 367.677 74.0812C368.737 61.9662 367.2 48.947 362.018 38.9276Z" fill="#273552"/>
    <path d="M363.608 73.725C362.598 85.2774 359.01 96.8754 352.881 104.908L351.83 106.286L204.051 93.3565L203.256 91.8173C198.614 82.8426 197.095 70.7978 198.106 59.2455C199.117 47.6931 202.704 36.0951 208.834 28.0627L209.884 26.685L357.663 39.6139L358.459 41.1531C363.1 50.1279 364.619 62.1727 363.608 73.725Z" fill="#1B2438"/>
    <path fill-rule="evenodd" clip-rule="evenodd" d="M308.99 38.5178C297.682 53.336 295.143 82.3577 303.706 98.9144C315.013 84.0962 317.553 55.0744 308.99 38.5178Z" fill="#202B42"/>
    <path d="M308.989 38.5172C317.552 55.0739 315.013 84.0956 303.705 98.9138L350.375 102.997C361.683 88.1787 364.222 59.157 355.659 42.6003L308.989 38.5172Z" fill="#2D3D5E"/>
    <mask id="mask0_240_1045" style="mask-type:alpha" maskUnits="userSpaceOnUse" x="303" y="38" width="58" height="65">
        <path d="M308.989 38.5172C317.552 55.0739 315.013 84.0956 303.705 98.9138L350.375 102.997C361.683 88.1787 364.222 59.157 355.659 42.6003L308.989 38.5172Z" fill="#D9D9D9"/>
    </mask>
    <g mask="url(#mask0_240_1045)">
        <path d="M347.399 63.896L339.023 57.9378C338.444 57.5222 337.765 57.2722 337.058 57.2139C336.344 57.1501 335.625 57.2816 334.977 57.5949L334.997 57.5868L325.774 62.0052C325.405 62.1607 325.084 62.4132 324.844 62.7365C324.603 63.0599 324.452 63.4423 324.405 63.8444L323.43 74.99C323.342 75.9992 323.804 76.9277 324.564 77.4689L324.576 77.4773L332.725 83.2684C333.273 83.6636 333.949 83.9275 334.69 83.9923C335.433 84.0573 336.143 83.9146 336.771 83.6113L336.752 83.6195L345.783 79.3314C346.224 79.1358 346.606 78.824 346.889 78.4284C347.172 78.0328 347.346 77.5678 347.392 77.0816L348.367 65.9432C348.397 65.5475 348.324 65.1509 348.157 64.793C347.989 64.4351 347.732 64.1283 347.41 63.9031L347.399 63.896Z" fill="#202D47"/>
    </g>
    <path d="M258.006 34.0571C246.699 48.8753 244.16 77.897 252.722 94.4537C264.03 79.6355 266.569 50.6137 258.006 34.0571Z" fill="#202B42"/>
    <path fill-rule="evenodd" clip-rule="evenodd" d="M206.052 90.3706C197.489 73.814 200.028 44.7922 211.336 29.974L258.006 34.0571C246.698 48.8753 244.159 77.8971 252.722 94.4537L206.052 90.3706Z" fill="#2D3D5E"/>
    <mask id="mask1_240_1045" style="mask-type:alpha" maskUnits="userSpaceOnUse" x="200" y="29" width="59" height="66">
        <path fill-rule="evenodd" clip-rule="evenodd" d="M206.054 90.3709C197.491 73.8142 200.03 44.7925 211.338 29.9743L258.008 34.0574C246.7 48.8756 244.161 77.8973 252.724 94.454L206.054 90.3709Z" fill="#D9D9D9"/>
    </mask>
    <g mask="url(#mask1_240_1045)">
        <path d="M238.975 50.054L215.014 47.9576L218.534 59.1868L220.911 54.0831L235.083 55.323C236.196 55.4204 236.628 54.4984 236.911 54.0433L238.975 50.054Z" fill="#202D47"/>
        <path d="M228.198 57.5502L222.495 57.0512L217.892 66.5272L220.157 73.973L224.171 65.8355L229.383 66.2915C230.411 66.3814 231.195 65.4571 231.536 64.9906L233.566 60.899L226.842 60.3107L228.198 57.5502Z" fill="#202D47"/>
    </g>
    <path d="M258.604 94.968C250.041 78.4113 252.58 49.3896 263.888 34.5714L303.107 38.0025C311.67 54.5592 309.13 83.5809 297.823 98.3991L258.604 94.968Z" fill="#2D3D5E"/>
    <mask id="mask2_240_1045" style="mask-type:alpha" maskUnits="userSpaceOnUse" x="253" y="34" width="56" height="65">
        <path d="M258.604 94.968C250.041 78.4113 252.58 49.3896 263.888 34.5714L303.107 38.0025C311.67 54.5592 309.13 83.5809 297.823 98.3991L258.604 94.968Z" fill="#D9D9D9"/>
    </mask>
    <g mask="url(#mask2_240_1045)">
        <path d="M271.255 54.47L270.45 63.6659L274.505 64.0206C274.971 58.6945 278.638 61.6988 282.847 62.0671C280.7 64.8142 274.174 67.8072 273.475 75.7963L282.202 76.5599C283.167 65.5332 290.321 63.8111 290.988 56.1964L286.547 55.8079L286.434 57.0978C283.152 56.8107 281.199 53.3275 275.196 56.1147L275.309 54.8248L271.255 54.47Z" fill="#202D47"/>
    </g>
    <path d="M111.776 29.0053C134.143 31.8351 145.47 24.0532 151.922 15.5638C153.069 22.9213 159.09 29.0053 165.542 29.0053C160.524 36.7872 142.602 49.5213 128.265 49.5213C117.511 49.5213 112.493 38.9096 111.776 29.0053Z" fill="#192133"/>
    <path d="M380.221 99.7824C396.513 104.55 405.726 100.043 411.399 94.4287C411.48 100.091 415.31 105.372 420.095 106.134C415.559 111.386 400.937 118.834 390.304 117.14C382.329 115.87 379.717 107.306 380.221 99.7824Z" fill="#192133"/>
    <path d="M399.471 53.7659C384.379 49.9255 378.661 37.4441 377.776 26.8829C383.122 30.7234 396.264 38.2122 406.074 37.4441C400.792 40.5164 399.471 49.6055 399.471 53.7659Z" fill="#1B2438"/>
    <path d="M169.787 107.967C153.94 111.979 139.174 102.951 130.17 93.9222C131.971 93.9222 137.013 92.1165 142.775 84.8936C148.538 93.7216 163.184 92.5846 169.787 90.9126C166.185 94.1228 168.286 103.62 169.787 107.967Z" fill="#192133"/>
</svg>
